<svg width="212" height="212" viewBox="0 0 212 212" fill="none" xmlns="http://www.w3.org/2000/svg">
<mask id="mask0_10334_47" style="mask-type:alpha" maskUnits="userSpaceOnUse" x="0" y="0" width="212" height="212">
<path d="M211.69 105.85C211.69 47.39 164.3 0 105.85 0C47.3901 0 0 47.39 0 105.85C0 164.3 47.3901 211.69 105.85 211.69C164.3 211.69 211.69 164.3 211.69 105.85Z" fill="#0054FA"/>
</mask>
<g mask="url(#mask0_10334_47)">
<g filter="url(#filter0_i_10334_47)">
<path d="M166.93 234.68C165.86 234.68 164.96 234.68 164.17 234.68C164 234.68 163.83 234.68 163.67 234.68C162.9 234.68 162.12 234.67 161.36 234.65C157.16 234.53 152.93 234.07 148.78 233.27C144.43 234.03 140.03 234.44 135.66 234.51C135.2 234.51 134.74 234.52 134.25 234.52C133.75 234.52 133.86 234.52 133.68 234.52H133.55C132.35 234.52 131.16 234.52 129.95 234.51H129.78C128.51 234.51 127.09 234.5 125.78 234.5C124.46 234.5 124.83 234.5 124.36 234.5L76.07 234.68V234.22C72.97 234.03 69.89 233.65 66.83 233.1C62.19 233.94 57.4599 234.37 52.7499 234.37H36.1898C10.2498 234.37 -13.6001 222.51 -29.2601 201.83L-29.4 201.65C-45.63 180.1 -50.2301 151.9 -41.7101 126.19L-35.9 108.75C-33.53 101.62 -30.4902 94.6603 -26.8402 88.0503C-27.1902 84.9503 -27.3702 81.8103 -27.3702 78.7003C-27.3702 73.4903 -26.87 68.2703 -25.88 63.1603C-25.82 61.0603 -25.68 58.9603 -25.45 56.9003C-24.13 44.8503 -19.99 33.1203 -13.46 22.9103C-10.16 14.3703 -5.63009 6.4703 -8.7738e-05 -0.569702C16.7899 -21.6397 42.9098 -34.2197 69.8898 -34.2197C96.8798 -34.2197 81.1899 -33.6797 86.7199 -32.6097C91.1999 -31.7397 94.78 -30.6998 101.87 -28.5298H101.88C102.81 -28.2498 103.37 -28.0697 103.71 -27.9797C112.92 -25.4297 121.68 -21.5298 129.78 -16.3898C135.92 -12.4898 141.59 -7.89978 146.66 -2.76978C154.17 0.810226 161.25 5.26023 167.74 10.4902C174.95 12.0802 182.01 14.4903 188.73 17.6503C198.38 22.1903 207.23 28.2103 215.01 35.5203C222.76 42.8003 229.27 51.2002 234.38 60.4902C237.24 65.6802 239.63 71.1202 241.53 76.7102C244.69 81.0302 247.41 85.5303 249.81 90.4203C252.54 95.9403 254.12 100.71 254.84 102.86L255.15 103.72L255.56 105.06C255.64 105.27 255.79 105.73 256.12 106.69L256.15 106.78C258.64 114.03 260.5 119.67 261.77 126.43L261.79 126.52C264.97 143.66 263.41 161.36 257.27 177.69C257.23 177.8 257.18 177.96 257.13 178.12L256.93 178.65C256.68 179.36 256.45 179.97 256.27 180.45C250.82 195.25 241.29 208.12 228.71 217.7C215.79 227.54 200.44 233.33 184.29 234.45L183.22 234.53L180.09 234.66H174.86C174.44 234.66 173.98 234.66 173.48 234.66C172.56 234.66 171.58 234.66 170.59 234.66H170.44C169.24 234.66 168.04 234.66 166.92 234.66L166.93 234.68Z" fill="#0054FA"/>
</g>
<path d="M69.8899 -33.5698C76.6399 -33.5698 80.7101 -33.5298 83.1101 -33.4598C83.8201 -33.4398 84.38 -33.4199 84.82 -33.3999C84.8 -33.3599 84.79 -33.3299 84.79 -33.2899C84.7 -32.8799 84.9401 -32.5998 85.1201 -32.4598C85.2901 -32.3398 85.4999 -32.2498 85.7199 -32.1798C85.8299 -32.1398 85.9601 -32.0998 86.1101 -32.0698L86.6001 -31.9598C91.0401 -31.0998 94.5899 -30.0799 101.68 -27.9099L101.77 -27.8799H101.78C102.2 -27.7499 102.54 -27.6398 102.83 -27.5598L103.53 -27.3499H103.54C112.39 -24.8999 120.84 -21.1798 128.67 -16.3098L129.42 -15.8398C135.53 -11.9598 141.16 -7.39981 146.19 -2.30981L146.27 -2.21985L146.38 -2.17981C153.85 1.38019 160.88 5.80012 167.33 11.0001L167.45 11.1001L167.6 11.1301C174.31 12.6101 180.89 14.8102 187.19 17.6702L188.45 18.2501C197.74 22.6101 206.28 28.3602 213.83 35.3202L214.56 36.0001C222.02 43.0001 228.33 51.0602 233.33 59.9502L233.81 60.8102C236.65 65.9602 239.02 71.3702 240.9 76.9202L240.94 77.0201L241 77.1001C243.94 81.1201 246.5 85.3002 248.77 89.8002L249.22 90.7101C251.93 96.1801 253.5 100.93 254.21 103.07L254.22 103.08V103.09L254.53 103.94L254.94 105.25V105.26L254.95 105.27C255.02 105.49 255.16 105.92 255.5 106.9V106.91L255.54 107.01C258.03 114.25 259.87 119.85 261.12 126.55V126.56V126.57L261.14 126.64C264.3 143.66 262.76 161.23 256.67 177.45C256.62 177.57 256.56 177.75 256.51 177.9L256.32 178.42C256.19 178.78 256.07 179.11 255.96 179.41L255.66 180.22L255.65 180.23C250.41 194.45 241.38 206.88 229.47 216.28L228.31 217.18C215.9 226.63 201.21 232.32 185.75 233.68L184.25 233.8L183.18 233.87L180.09 234H165.86L165.87 234.02H163.67C163.29 234.02 162.9 234.02 162.52 234.02L161.38 233.99C157.21 233.87 153.02 233.42 148.9 232.62L148.78 232.6L148.66 232.62C144.62 233.33 140.53 233.73 136.46 233.84L135.65 233.85C135.42 233.85 135.18 233.85 134.96 233.86C134.72 233.86 134.49 233.86 134.25 233.86H133.55C132.95 233.86 132.35 233.86 131.75 233.86L129.95 233.85H129.78C129.15 233.85 128.48 233.85 127.8 233.85C127.12 233.84 126.44 233.84 125.78 233.84H124.35L76.7299 234.02V233.6L76.1101 233.57C73.0401 233.37 69.9799 233 66.9499 232.45L66.83 232.43L66.7199 232.45C62.1199 233.29 57.42 233.71 52.75 233.71H36.1899C10.8599 233.71 -12.46 222.32 -28.01 202.39L-28.74 201.44L-28.8799 201.25C-44.9799 179.87 -49.5401 151.9 -41.0901 126.4L-35.2801 108.96C-32.9201 101.87 -29.9 94.9501 -26.26 88.3601L-26.1599 88.1802L-26.18 87.9701C-26.53 84.8901 -26.71 81.7902 -26.71 78.7002C-26.71 73.5402 -26.22 68.3502 -25.24 63.2802L-25.23 63.2301V63.1802C-25.17 61.3602 -25.0599 59.5401 -24.8799 57.7401L-24.7901 56.9801V56.9701C-23.4901 45.0201 -19.3899 33.3901 -12.9099 23.2701L-12.8701 23.2101L-12.8501 23.1501C-9.67012 14.9301 -5.36004 7.32012 -0.0100365 0.500122L0.509983 -0.159912C17.17 -21.0699 43.1099 -33.5698 69.8899 -33.5698Z" stroke="url(#paint0_linear_10334_47)" stroke-width="1.31185" stroke-miterlimit="10"/>
<path d="M161.29 154.651L161.57 155.701L161.71 156.211C161.94 157.05 162.75 157.691 163.61 157.691C163.67 157.691 163.79 157.691 163.86 157.691H164.41C167.54 157.711 172.1 157.681 175.24 157.691H178.49L178.94 157.671C181.21 157.511 183.3 155.931 184.07 153.771C184.29 153.181 184.96 151.34 185.19 150.711C186.4 147.511 186.74 143.991 186.11 140.641C185.63 138.091 183.03 131.011 182.2 128.381C181.76 127.181 181.32 125.551 180.75 124.441C180.15 123.211 179.42 122.111 178.52 121.071C177.35 119.721 172.54 113.951 171.54 112.761L170.83 111.931C169.38 110.311 170 108.031 169.64 106.071C168.44 94.8906 158.62 85.6706 147.43 85.1706C145.08 85.0806 141.28 85.1405 138.83 85.1305C137.2 85.1805 135.55 84.8506 134.11 84.0706C132.82 83.4606 131.54 82.0805 130.52 81.0905L124.32 75.0106C123.45 74.1706 122.1 72.8105 121.23 72.0005C118.69 69.6105 115.74 67.6706 112.54 66.2806C111.12 65.6506 104.06 62.8805 102.51 62.2305C101.05 61.6305 99.6902 60.7506 98.5302 59.6706C97.4602 58.6906 96.52 57.3006 95.67 56.1606C95.04 55.3406 93.7402 53.5705 93.0802 52.7205C90.5402 49.4605 86.88 47.1906 82.9 46.1506C81.38 45.7406 73.6102 43.2705 72.0902 42.9805C67.6802 42.1305 62.92 43.9205 60.15 47.4805C59.1 48.7505 58.3901 50.3206 57.9301 51.9006C57.6901 52.8506 57.51 53.9805 57.39 54.9705C56.92 58.3105 55.1001 61.4305 52.4301 63.4905L51.9501 63.8405C51.9101 63.8705 51.8802 63.8906 51.8602 63.9206L51.7902 63.9705C50.9602 64.6005 50.8101 65.9305 51.4901 66.7305C51.5201 66.7705 51.6 66.8606 51.65 66.9206L53.0402 68.5905L52.9701 68.5106C53.4001 68.9506 53.5402 69.6505 53.3002 70.2105C53.0602 70.6905 52.6002 71.6205 52.3602 72.1205C51.8002 73.2405 50.6702 75.5206 50.1102 76.6406C48.8202 79.1206 50.1602 82.4606 52.8502 83.3106L55.2201 84.1005C55.9101 84.3005 56.4902 84.8006 56.8302 85.4306L57.4 86.5905L57.6901 87.1606C58.3201 88.5206 59.8001 89.3305 61.2701 89.2205C61.7401 89.2205 69.8402 89.2205 72.0902 89.2205C72.3802 89.2205 72.6202 89.4605 72.6202 89.7505C72.6202 90.0305 72.4401 90.2206 72.1901 90.2706L68.3102 91.0406C67.7502 91.1606 67.3502 91.6406 67.3502 92.2006V93.1906C67.3502 96.2806 66.0101 99.2306 63.6901 101.271L50.5702 112.791C44.3702 118.231 39.7202 125.241 37.1202 133.091L31.3402 150.441C30.7802 152.101 31.0202 153.961 32.0702 155.361C33.0602 156.651 34.5401 157.401 36.1801 157.401H52.7401C53.8301 157.401 54.7201 156.511 54.7201 155.411V153.551C54.7201 153.031 54.51 152.521 54.14 152.141L53.3102 151.311C52.7802 150.771 52.5401 149.991 52.7501 149.281C53.0101 148.421 53.78 147.851 54.66 147.851H59.0802C60.1702 147.851 61.0602 146.971 61.0602 145.871V142.691C61.0602 140.321 62.1702 138.071 64.0702 136.651L64.4501 136.361C70.1001 132.111 73.5601 125.441 73.4801 118.361C73.4401 114.841 75.0001 111.561 77.7501 109.391L81.16 106.681C81.48 106.421 81.6502 106.021 81.6002 105.611C81.4102 104.101 81.0602 102.611 80.5702 101.171C80.2202 100.131 79.48 97.9606 79.13 96.9206C76.97 90.9506 77.6301 83.9905 80.9701 78.6105C83.0701 75.1605 86.2202 72.3906 89.8302 70.8106C90.0902 70.6906 90.3901 70.8106 90.5201 71.0706C90.6401 71.3106 90.5502 71.6106 90.3102 71.7606C82.2502 76.7806 78.2301 87.1205 81.5101 96.1205C81.8401 97.1505 82.59 99.4106 82.9 100.391C84.38 104.881 84.5801 109.791 83.4501 114.371L77.16 137.551L76.9601 138.271C76.0801 141.131 76.48 144.261 77.92 146.861C77.97 147.001 78.2802 147.581 78.3402 147.691C79.0002 148.911 78.8702 150.411 78.8702 151.721V154.721C78.8502 155.381 78.8502 156.211 79.3602 156.731C79.8002 157.251 80.49 157.451 81.15 157.401H99.0802C99.2602 157.401 99.9002 157.401 100.07 157.391C101.14 157.291 101.94 156.271 101.85 155.201V153.701C101.85 153.371 101.82 153.041 101.68 152.741C101.55 152.431 101.27 152.141 101.03 151.911L99.9601 150.841C99.0201 149.921 98.9101 148.281 99.7001 147.241C99.9701 146.861 101.57 144.621 101.87 144.201C103.42 141.941 106.39 137.911 107.89 135.671C111.27 130.501 112.35 123.941 110.88 117.961C110.55 116.3 109.56 114.051 109.01 112.431C108.32 110.441 106.53 105.871 105.98 103.861C105.1 100.851 105.1 97.7005 105.3 94.6205C105.4 92.7905 105.51 90.9505 105.68 89.1105C105.71 88.8405 105.93 88.6205 106.22 88.6205C106.51 88.6205 106.73 88.8405 106.77 89.1105C107.02 91.9305 107.14 94.7905 107.28 97.5905C107.47 100.501 108.15 103.231 109.25 105.931C109.98 107.841 111.76 112.511 112.45 114.341C113.02 115.821 113.44 117.381 113.71 118.951C113.91 120.141 114.7 121.151 115.81 121.611C117.47 122.291 119.2 122.901 121.03 123.411C122.9 123.941 124.88 123.051 125.72 121.291C125.86 120.991 126.02 120.691 126.17 120.391C127.38 118.041 129.02 115.931 130.63 113.851C132.12 111.941 133.66 110.071 135.26 108.231C135.44 108.021 135.75 107.991 135.99 108.151C136.21 108.311 136.29 108.631 136.15 108.861C134.31 111.941 132.12 115.281 130.13 118.221C127.77 121.871 126.11 126.001 125.4 130.301C124.86 133.741 123.84 140.201 123.29 143.711C123.06 145.001 122.94 146.741 122.24 147.891C121.62 149.101 120.18 150.081 119.17 150.931L118.42 151.541L118.32 151.621L118.27 151.671C117.71 152.151 117.49 152.951 117.71 153.661C117.93 154.411 118.23 155.651 118.44 156.341C118.7 157.061 119.44 157.561 120.21 157.541H124.08C127.27 157.521 130.55 157.541 133.74 157.541C133.88 157.541 134.32 157.541 134.47 157.541C135.88 157.541 137.29 157.081 138.42 156.231C139.86 155.191 140.55 153.731 141.12 152.031C141.55 150.871 144 144.251 144.48 142.941C144.91 141.721 145.43 140.401 145.99 139.241C147.76 135.591 150.23 132.301 153.31 129.671C157.04 126.601 159.81 122.631 161.68 118.101C161.79 117.831 162.07 117.691 162.34 117.771C162.61 117.841 162.79 118.111 162.75 118.391C162.13 122.191 160.3 125.741 157.78 128.651C156.77 129.821 156.18 131.281 156.18 132.821V134.101C156.18 134.721 156.18 135.451 156.29 136.071C156.55 137.611 157.38 139.031 158.55 140.061L159.34 140.801L162.53 143.741L164.13 145.211C164.57 145.59 164.92 146.081 165.07 146.651C165.41 147.801 164.88 149.071 163.89 149.741C163.48 150.081 162.62 150.761 162.2 151.101C162.01 151.281 161.66 151.521 161.49 151.711C161.01 152.211 160.82 152.961 161 153.631L161.27 154.671H161.28L161.29 154.651Z" fill="white"/>
</g>
<defs>
<filter id="filter0_i_10334_47" x="-45.9121" y="-34.2197" width="309.308" height="274.73" filterUnits="userSpaceOnUse" color-interpolation-filters="sRGB">
<feFlood flood-opacity="0" result="BackgroundImageFix"/>
<feBlend mode="normal" in="SourceGraphic" in2="BackgroundImageFix" result="shape"/>
<feColorMatrix in="SourceAlpha" type="matrix" values="0 0 0 0 0 0 0 0 0 0 0 0 0 0 0 0 0 0 127 0" result="hardAlpha"/>
<feOffset dy="5.83044"/>
<feGaussianBlur stdDeviation="2.91522"/>
<feComposite in2="hardAlpha" operator="arithmetic" k2="-1" k3="1"/>
<feColorMatrix type="matrix" values="0 0 0 0 0 0 0 0 0 0 0 0 0 0 0 0 0 0 0.25 0"/>
<feBlend mode="normal" in2="shape" result="effect1_innerShadow_10334_47"/>
</filter>
<linearGradient id="paint0_linear_10334_47" x1="-8.20005" y1="27.1002" x2="182.34" y2="201.65" gradientUnits="userSpaceOnUse">
<stop offset="0.125" stop-color="#89D0FF"/>
<stop offset="0.4" stop-color="#EBBF9A"/>
<stop offset="0.635" stop-color="#EB8280"/>
<stop offset="0.88" stop-color="#A281FF"/>
</linearGradient>
</defs>
</svg>
