<svg xmlns="http://www.w3.org/2000/svg" viewBox="0 0 794 275" fill="none">
  <path d="M99.592 64.1631H127.906L146.178 215.609H122.144L119.51 182.686H106.835L104.201 215.609H81.4844L99.7567 64.1631H99.592ZM110.786 131.49L108.317 162.602H117.7L115.066 131.49L113.255 105.316H112.597L110.786 131.49ZM196.221 215.774H171.858V64.1631H203.794C221.242 64.1631 231.778 74.3685 231.778 92.8056V130.009C231.778 148.281 221.078 158.488 203.794 158.488H196.221V215.774ZM196.55 140.38H201.818C205.934 140.38 207.58 136.758 207.58 130.174V92.971C207.58 86.2213 205.934 82.6003 201.818 82.6003H196.55V140.544V140.38ZM259.927 215.774V64.1631H307.502V84.2454H284.291V129.021H305.032V149.104H284.291V195.526H307.502V215.609H259.927V215.774ZM391.29 154.208V186.801C391.29 206.391 381.413 217.255 362.812 217.255C344.211 217.255 332.687 206.391 332.687 186.801V92.971C332.687 73.3811 344.211 62.5167 362.812 62.5167C381.413 62.5167 391.29 73.3811 391.29 92.971V124.247H368.409V91.1592C368.409 84.7403 366.763 81.1181 362.812 81.1181C358.862 81.1181 357.051 84.7403 357.051 91.1592V188.777C357.051 194.867 358.696 198.654 362.812 198.654C366.927 198.654 368.409 195.033 368.409 188.777V154.208H391.29ZM457.301 215.774V149.598H444.132V215.774H419.605V64.1631H444.132V128.857H457.301V64.1631H481.665V215.609H457.301V215.774ZM525.617 64.1631H553.93L572.203 215.609H548.169L545.535 182.686H532.86L530.225 215.609H507.509L525.781 64.1631H525.617ZM536.975 131.49L534.505 162.602H543.889L541.255 131.49L539.444 105.316H538.785L536.975 131.49ZM598.047 215.774V64.1631H622.575V215.609H598.047V215.774ZM678.05 64.1631L690.89 140.051H691.219V64.1631H712.29V215.609H690.56L673.441 126.881H673.112V215.609H652.041V64.1631H678.05Z" fill="white"/>
  <path d="M789.249 274.414H4.52693C2.02477 274.414 0 272.389 0 269.886V4.52751C0 2.02465 2.02477 0 4.52693 0H789.249C791.75 0 793.775 2.02465 793.775 4.52751V269.886C793.775 272.389 791.75 274.414 789.249 274.414ZM22.7169 251.697H771.223V22.7172H22.7169V251.697Z" fill="white"/>
</svg>
