<svg width="132" height="26" viewBox="0 0 132 26" fill="none" xmlns="http://www.w3.org/2000/svg">
<path d="M11.4999 5.58728C11.5053 5.35631 11.7926 5.27146 11.9155 5.46284C13.3953 7.76973 15.9149 9.28848 18.7751 9.28848C19.8474 9.28848 20.8719 9.07448 21.8115 8.68607C19.9414 4.74069 16.054 2.02277 11.5559 2.00014C5.24196 1.96809 0.0500493 7.31532 0.000361617 13.9041C-0.00957593 15.2249 0.185561 16.4976 0.554154 17.6883C3.27162 17.4536 5.92766 16.2525 8.00641 14.0823C10.2613 11.7292 11.4258 8.67004 11.4999 5.58728Z" fill="url(#paint0_linear_187_4992)"/>
<path d="M11.4449 25.9999C17.758 26.031 22.949 20.6866 22.9996 14.0987C23.0096 12.7779 22.8144 11.5062 22.4467 10.3155C19.7284 10.5502 17.0732 11.7513 14.9936 13.9215C12.7386 16.2745 11.575 19.3337 11.501 22.4165C11.4955 22.6475 11.2083 22.7323 11.0854 22.5409C9.6056 20.2341 7.08597 18.7153 4.22575 18.7153C3.1543 18.7153 2.12983 18.9284 1.19028 19.3168C3.06125 23.2603 6.94775 25.9772 11.4449 25.9999Z" fill="url(#paint1_linear_187_4992)"/>
<path d="M108.756 7.27753H109.942C111.679 7.27753 113.087 8.68574 113.087 10.4229V22.7381H108.756V7.27753Z" fill="white"/>
<path d="M32.268 16.6997C32.2906 17.5126 32.5954 18.2014 33.1825 18.7659C33.7923 19.3304 34.8084 19.6127 36.2311 19.6127C37.5408 19.6127 38.478 19.4208 39.0425 19.0369C39.6297 18.653 39.9232 18.1336 39.9232 17.4787C39.9232 17.0497 39.7313 16.7222 39.3474 16.4964C38.9861 16.2706 38.478 16.1012 37.8231 15.9883C37.1682 15.8528 36.1408 15.7061 34.7407 15.548C32.3019 15.2544 30.6534 14.5995 29.7953 13.5834C28.9597 12.5446 28.542 11.359 28.542 10.0267C28.542 9.0331 28.8355 8.12983 29.4227 7.31688C30.0098 6.48135 30.8792 5.81519 32.0309 5.31838C33.1825 4.82158 34.5713 4.57318 36.1972 4.57318C38.478 4.57318 40.2733 5.11515 41.583 6.19908C42.8928 7.26043 43.6041 8.63792 43.717 10.3316H39.449C39.3813 9.65411 39.0877 9.08956 38.5683 8.63792C38.0715 8.18628 37.2473 7.96046 36.0956 7.96046C33.9503 7.96046 32.8777 8.57018 32.8777 9.7896C32.8777 10.1283 32.9567 10.4106 33.1148 10.6364C33.2955 10.8622 33.6681 11.0655 34.2326 11.2461C34.7971 11.4268 35.6327 11.5736 36.7392 11.6865C39.1103 11.9349 40.9507 12.4881 42.2605 13.3462C43.5928 14.1818 44.259 15.4464 44.259 17.14C44.259 19.0143 43.5476 20.4595 42.125 21.4757C40.7249 22.4919 38.7151 23 36.0956 23C33.5664 23 31.6018 22.4467 30.2017 21.3402C28.8242 20.2111 28.0903 18.6643 28 16.6997H32.268Z" fill="white"/>
<path d="M53.4832 4.57318C55.2898 4.57318 56.8705 4.97966 58.2254 5.7926C59.5803 6.60555 60.6191 7.71206 61.3417 9.11214C62.0643 10.5122 62.4257 12.0704 62.4257 13.7866C62.4257 15.5028 62.0643 17.061 61.3417 18.461C60.6191 19.8611 59.5803 20.9676 58.2254 21.7806C56.8705 22.5935 55.2898 23 53.4832 23C51.6767 23 50.0959 22.5935 48.741 21.7806C47.3861 20.9676 46.3473 19.8611 45.6247 18.461C44.9021 17.061 44.5408 15.5028 44.5408 13.7866C44.5408 12.0704 44.9021 10.5122 45.6247 9.11214C46.3473 7.71206 47.3861 6.60555 48.741 5.7926C50.0959 4.97966 51.6767 4.57318 53.4832 4.57318ZM53.4832 19.0708C54.9059 19.0708 56.0237 18.574 56.8366 17.5804C57.6722 16.5642 58.0899 15.2996 58.0899 13.7866C58.0899 12.2736 57.6722 11.0203 56.8366 10.0267C56.0237 9.01052 54.9059 8.50243 53.4832 8.50243C52.0606 8.50243 50.9315 9.01052 50.0959 10.0267C49.283 11.0203 48.8765 12.2736 48.8765 13.7866C48.8765 15.2996 49.283 16.5642 50.0959 17.5804C50.9315 18.574 52.0606 19.0708 53.4832 19.0708Z" fill="white"/>
<path d="M82.8356 4.57318C84.5744 4.57318 85.9858 5.12644 87.0697 6.23295C88.1762 7.33946 88.7295 9.13472 88.7295 11.6187V22.729H84.3938V12.2962C84.3938 10.9413 84.168 9.97025 83.7163 9.38312C83.2873 8.79599 82.5534 8.50243 81.5146 8.50243C80.5436 8.50243 79.7419 8.98794 79.1096 9.95896C78.4773 10.9074 78.1612 12.1607 78.1612 13.7188V22.729H73.8255V12.7027C73.8255 11.2123 73.6561 10.1396 73.3174 9.48474C72.9786 8.82987 72.2899 8.50243 71.2511 8.50243C70.5511 8.50243 69.9188 8.76212 69.3542 9.28151C68.8123 9.77831 68.3832 10.4896 68.0671 11.4155C67.7509 12.3188 67.5928 13.335 67.5928 14.464V22.729H63.2571V4.84416H67.5928V5.86035C67.5928 6.26682 67.5477 6.60555 67.4574 6.87653C67.367 7.14752 67.2202 7.52012 67.017 7.99434C66.9267 8.17499 66.8815 8.32177 66.8815 8.43468C66.8815 8.57018 66.9606 8.67179 67.1186 8.73954L67.2541 8.77341C67.3896 8.77341 67.4912 8.71696 67.559 8.60405C67.6267 8.46856 67.6606 8.38952 67.6606 8.36694C68.1348 7.1701 68.7897 6.24424 69.6252 5.58937C70.4608 4.91191 71.4543 4.57318 72.606 4.57318C73.7351 4.57318 74.6723 4.90062 75.4175 5.55549C76.1627 6.18779 76.6595 7.03461 76.9079 8.09596C76.9756 8.32177 77.145 8.43468 77.416 8.43468C77.6418 8.43468 77.7999 8.33307 77.8902 8.12983C78.387 7.00073 79.0645 6.13133 79.9226 5.52162C80.8033 4.88933 81.7743 4.57318 82.8356 4.57318Z" fill="white"/>
<path d="M100.715 4.57318C102.702 4.57318 104.272 5.21676 105.424 6.50393C106.575 7.7911 107.151 9.67669 107.151 12.1607V22.729H102.815V13.6511C102.815 11.7091 102.556 10.3654 102.036 9.62023C101.517 8.87503 100.67 8.50243 99.4958 8.50243C98.6602 8.50243 97.8699 8.79599 97.1247 9.38312C96.4021 9.97025 95.8149 10.7945 95.3633 11.8558C94.9116 12.9172 94.6858 14.114 94.6858 15.4464V22.729H90.3501V4.84416H94.6858V5.96197C94.6858 6.48135 94.6407 6.9217 94.5503 7.28301C94.46 7.64432 94.3245 8.01692 94.1439 8.40081C94.031 8.67179 93.9745 8.85245 93.9745 8.94278C93.9745 9.14601 94.0648 9.25892 94.2455 9.28151H94.3471C94.5052 9.28151 94.6407 9.14601 94.7536 8.87503C95.2504 7.76852 96.0182 6.77491 97.0569 5.89422C98.0957 5.01353 99.3151 4.57318 100.715 4.57318Z" fill="white"/>
<path d="M114.21 17.8175C114.21 15.9657 114.797 14.5995 115.972 13.7188C117.169 12.8156 118.749 12.3075 120.714 12.1946L122.441 12.1268C123.977 12.0817 125.072 11.98 125.727 11.822C126.382 11.6639 126.698 11.28 126.676 10.6703C126.653 9.90251 126.393 9.28151 125.896 8.80729C125.4 8.33307 124.463 8.09596 123.085 8.09596C121.685 8.09596 120.691 8.34436 120.104 8.84116C119.517 9.31538 119.156 9.97025 119.02 10.8058H114.752C115.046 8.68308 115.983 7.11364 117.564 6.09746C119.144 5.08127 121.03 4.57318 123.221 4.57318C125.614 4.57318 127.511 5.16031 128.911 6.33457C130.311 7.50883 131.011 9.67669 131.011 12.8382V22.729H126.676V21.4757C126.676 20.7983 126.845 20.1434 127.184 19.5111C127.274 19.2853 127.319 19.1159 127.319 19.003C127.319 18.8675 127.263 18.7772 127.15 18.732L127.014 18.6982C126.879 18.6982 126.777 18.7659 126.709 18.9014C126.642 19.0143 126.608 19.082 126.608 19.1046C125.546 21.7015 123.492 23 120.443 23C119.336 23 118.298 22.7742 117.327 22.3225C116.378 21.8709 115.622 21.2499 115.057 20.4595C114.493 19.6692 114.21 18.7885 114.21 17.8175ZM126.676 13.5156C126.224 14.0124 125.625 14.3624 124.88 14.5657C124.158 14.7463 123.017 14.9157 121.459 15.0738C120.488 15.1867 119.754 15.4464 119.257 15.8528C118.783 16.2367 118.546 16.8126 118.546 17.5804C118.546 18.2352 118.794 18.7659 119.291 19.1724C119.811 19.5788 120.477 19.7821 121.29 19.7821C121.583 19.7821 121.809 19.7708 121.967 19.7482C123.3 19.5676 124.406 18.9917 125.287 18.0207C126.19 17.0497 126.653 15.548 126.676 13.5156Z" fill="white"/>
<path d="M113.343 2.80037C113.137 2.88149 112.913 2.92605 112.678 2.92605C111.676 2.92605 110.863 2.11362 110.863 1.11143C110.863 0.898605 110.9 0.694335 110.967 0.504587C110.953 0.504337 110.939 0.504211 110.924 0.504211C109.587 0.504211 108.502 1.5885 108.502 2.92605C108.502 4.26359 109.587 5.34789 110.924 5.34789C112.262 5.34789 113.346 4.26359 113.346 2.92605C113.346 2.88389 113.345 2.84199 113.343 2.80037Z" fill="white"/>
<defs>
<linearGradient id="paint0_linear_187_4992" x1="21.8115" y1="2" x2="8.43578" y2="19.929" gradientUnits="userSpaceOnUse">
<stop stop-color="#4B1BF9"/>
<stop offset="1" stop-color="#3ECCEE"/>
</linearGradient>
<linearGradient id="paint1_linear_187_4992" x1="23" y1="10.3155" x2="9.62817" y2="28.2422" gradientUnits="userSpaceOnUse">
<stop stop-color="#F20A49"/>
<stop offset="0.52" stop-color="#C119E7"/>
<stop offset="1" stop-color="#4675F3"/>
</linearGradient>
</defs>
</svg>
